<?xml version="1.0" encoding="UTF-8"?>
<svg id="Layer_1" xmlns="http://www.w3.org/2000/svg" version="1.1" viewBox="0 0 100 101.8">
  <!-- Generator: Adobe Illustrator 29.7.0, SVG Export Plug-In . SVG Version: 2.1.1 Build 138)  -->
  <path d="M91.78,42.18v-2.9h-2.88v-5.76h-2.88v-2.88h-20.18v2.88h-11.52v-2.88h-2.88v-11.52h-2.88v11.52h-2.88v2.88h-11.52v-2.88H13.99v2.88h-2.88v5.76h-2.9v5.78h-2.88v11.52h2.88v5.76h2.9v5.78h2.88v5.76h2.88v5.76h2.88v2.88h5.76v-2.88h2.88v-2.88h2.88v-5.76h2.88v-5.78h2.88v-5.76h5.76v-2.88h5.76v-2.88h2.88v2.88h5.76v2.88h5.76v5.76h2.88v5.78h2.9v5.76h2.88v2.88h2.88v2.88h5.76v-2.88h2.88v-5.76h2.88v-5.76h2.88v-5.78h2.88v-5.76h2.88v-11.52h-2.88v-2.88ZM45.68,50.82h-5.76v-2.88h5.76v2.88ZM80.26,47.94h-2.88v-2.88h-2.88v-2.88h5.76v5.76ZM80.26,56.59v2.88h-5.76v-5.76h2.88v2.88h2.88ZM74.5,50.82h-2.88v2.88h-2.88v-5.76h5.76v2.88ZM16.87,47.94h2.88v-5.76h5.76v5.76h5.76v5.76h-5.76v5.76h-5.76v-5.76h-5.76v-5.76h2.88ZM54.32,47.94h5.76v2.88h-5.76v-2.88ZM83.14,53.71h-2.88v-2.88h2.88v-2.88h2.88v5.76h-2.88Z"/>
  <polygon points="77.38 27.77 80.26 27.77 83.14 27.77 83.14 24.88 80.26 24.88 77.38 24.88 74.5 24.88 71.62 24.88 71.62 27.77 74.5 27.77 77.38 27.77"/>
  <polygon points="19.75 53.71 22.63 53.71 25.51 53.71 25.51 50.82 25.51 47.94 22.63 47.94 19.75 47.94 19.75 50.82 19.75 53.71"/>
  <polygon points="22.63 27.77 25.51 27.77 28.4 27.77 28.4 24.88 25.51 24.88 22.63 24.88 19.75 24.88 16.87 24.88 16.87 27.77 19.75 27.77 22.63 27.77"/>
</svg>