<?xml version="1.0" encoding="UTF-8"?>
<svg id="Layer_1" xmlns="http://www.w3.org/2000/svg" version="1.1" viewBox="0 0 1024 1024">
  <!-- Generator: Adobe Illustrator 29.7.0, SVG Export Plug-In . SVG Version: 2.1.1 Build 138)  -->
  <path d="M214,542l.94,5.57,10.07.43v9.01s10-.01,10-.01v11.01s11-.01,11-.01v10.01s9-.01,9-.01v10.01s10.56.93,10.56.93l.43,9.07h10.01s-.01,11-.01,11h10.01s-.01,10-.01,10h10.01s1.14,9.86,1.14,9.86l9.42,1.08.44,9.06h20v-10.01s10.01.01,10.01.01v-10.01s10,.01,10,.01v-10.01s11,.01,11,.01v-11.01s9,.01,9,.01l.93-9.57,10.07-.43v-10.01s10,.01,10,.01v-10.01s10,.01,10,.01l.43-10.07,10.57-.93v-9.01s60.99,0,60.99,0v9.01s9,0,9,0v62h-9.01s-1.1,9.89-1.1,9.89l-9.9.1v10.01s-10-.01-10-.01l-.1,9.9-9.9,1.1v10.01s-10-.01-10-.01v10.01s-10-.01-10-.01v10.01s-10-.01-10-.01v10.01s-11-.01-11-.01v11.01s-9.99,0-9.99,0v20h10.01s-.01,11.01-.01,11.01l9.96.05,1.05,9.95h10.01s-.01,10-.01,10h10.01s.46,10.05.46,10.05l.99.7c10.19-3.26,8.76,2.27,8.54,10.26h10.01s.93,9.56.93,9.56l9.07.43v11.01s11-.01,11-.01v9.01s8.56.93,8.56.93l.3,50.42-1.5,1.5-7.37.13v10.01s-11-.01-11-.01v11.01s-39.49,0-39.49,0l-1.5-6-8.97-.03c.89-7.39-5.95-4.5-11.04-4.96v-10.01s-10,.01-10,.01l-.43-10.07-10.13-1.87-.43-9.07-9.57-.93-.43-10.07-8.99,1-.45-10.06-10.57-.93-.43-10.07-9.57-.93v-9.01s-10,.01-10,.01v-11.01s-20.99,0-20.99,0v11.01s-10.01-.01-10.01-.01l-.13,8.86-9.87,1.14v10.01s-10-.01-10-.01l-.93,10.57-9.07.43-.93,9.57-10.07.43v10.01s-9-.01-9-.01l-.93,10.57-10.07.43v10.01s-20.99,0-20.99,0v11h-40v-11.01s-11.01.01-11.01.01v-10.01s-9.99,0-9.99,0v-53h10.01s.43-9.06.43-9.06l9.57-.93.93-9.57,9.07-.43.93-9.57,10.07-.43v-10.01s9.06-.43,9.06-.43l1.08-9.42,9.87-1.14v-10.01s11,.01,11,.01v-10.01s9.56-.93,9.56-.93l.43-10.07h11.01s0-18.49,0-18.49c-1.46-3-10.22-.71-11.01-1.49l-.43-10.07-9.57-.93-.93-9.57-10.07-.43v-10.01s-10,.01-10,.01v-10.01s-10,.01-10,.01v-10.01s-10,.01-10,.01l-.43-10.07-9.57-.93v-10.01s-11,.01-11,.01v-10.01s-9.99,0-9.99,0v-62h10.01s-.01-9.01-.01-9.01h11.01s0-5.99,0-5.99h40Z"/>
  <path d="M358,155v10h29l.99,11.01,20.07.43.93,9.57h10.01s-.01,10-.01,10h10.01s-.01,10-.01,10h10.01s.43,10.06.43,10.06l9.57.93v10.01s10,0,10,0v21h10v20h10v103h-9v18.5c0,.28-1.03,2.33-1.69,2.54l-9.31-.04v20l-9.56.94-.43,10.07h-10.01s.01,10,.01,10h-10.01s.01,11,.01,11h-10.01s-1.14,9.86-1.14,9.86l-9.42,1.08-.44,9.06h-19.5c-2.85,2.64-1.05,7.43-1.5,11h-30v9h-82l1-9h-30v-10h-19.5c-3-1.46-.71-10.22-1.49-11.01l-10.07-.43-.93-9.57-10.57-.93-.43-10.07h-9.01s.01-10,.01-10l-10.07-.43-.93-9.57h-9.01s0-21,0-21h-11v-21h-10v-93h10v-31h11v-20h9.01s-.01-10.01-.01-10.01h11.01s-.01-11-.01-11h10.01s-.01-10-.01-10h10.01s-.01-10-.01-10l10.07-.43.94-9.56h19.5c2.85-2.64,1.05-7.43,1.5-11h30v-10h82ZM347,248h-61v10h-20v20h-11.01s.01,11.01.01,11.01h-9.01s0,60.99,0,60.99h9v19.5c1.46,2.99,10.22.71,11.01,1.49v10.01s19.99,0,19.99,0v11h59.5c2.85-2.64,1.05-7.43,1.5-11h20v-10.01c2.29-.35,10.29,1.17,10.89-1.57l.1-19.43h10.01s-1-62-1-62h-10.01s.01-10,.01-10h-10s1-15,1-15h-10.01s.01-5,.01-5h-11.01s0-9.99,0-9.99Z"/>
  <path d="M747,548v9h29.5l1.5,6h10.01s-.01,10-.01,10h10.01s-.01,5-.01,5h11.01s-.01,10-.01,10h10.01s-.01,10-.01,10h10.01s-.01,11-.01,11l10.07.43.93,9.57h9.01s0,20,0,20h11v31h10v82h-10v31h-11v20l-8.86,1.14-.13,9.86h-11.01s-.43,10.06-.43,10.06l-9.57.93v10.01s-10-.01-10-.01v5.01s-10.06.43-10.06.43l-.93,9.57h-11.01s0,6,0,6h-20v9h-20v6h-82l.06-8.38c-.12-.44-3.29-1.62-3.56-1.62h-17.5v-5h-19.5l-1.26-1.46c3.14-10.65-1.25-10.03-10.25-9.54v-5.01s-10,.01-10,.01v-10.01s-11,.01-11,.01v-11.01s-9.99,0-9.99,0v-16h-10.01s.01-10.01.01-10.01h-11.01s0-29.99,0-29.99c-3.57-.45-8.36,1.35-11-1.5v-101l1.46-1.26,9.54.76v-31h11v-20h10.01s0-9.99,0-9.99l9.98-1.02v-10s11.01.01,11.01.01v-10.01s9.06-.43,9.06-.43l.93-5.57h11.01s0-6,0-6h17.5c.25,0,.59.81,1,.77l1.38-1.39.12-8.38h21v-9h82ZM736,639h-61l-.44,10.06-9.57.93-.93,9.57-10.07.43v10.01s-9.99,0-9.99,0v21h-10v39.5c2.38,2.74,6.71,1.13,10,1.5v20h10.01s-.01,10.01-.01,10.01l10.07.43.93,10.57h10.01s0,8.99,0,8.99h62s-.01-9-.01-9h10.01s-.01-6-.01-6h11.01s-1.01-15-1.01-15h10.01s-.01-10-.01-10h11.01s0-61.99,0-61.99h-11v-20l-9.06-.44-.93-9.57h-10.01s.01-5,.01-5h-11.01s0-5.99,0-5.99Z"/>
  <path d="M613,155v10.01s10.06.43,10.06.43l.93,10.57h10.01s-.01,10-.01,10h10.01s-.01,10-.01,10h10.01s-.01,10-.01,10l10.07.43.93,9.57,9.57.93.43,10.07h10.01s-.01,10-.01,10l9.86.13,1.14,10.87,9-1,1,11.01h8.43s1.51-9.57,1.51-9.57l9.63-1.37.43-10.07h11.01s-.01-10-.01-10h10.01s-.01-10-.01-10h10.01s.43-10.06.43-10.06l9.57-.93v-10.01s10.06-.43,10.06-.43l.93-9.57h10.01s-.01-10-.01-10h10.01s.43-10.06.43-10.06l9.42-1.08,1.14-9.86h51v10.01s10,0,10,0v62h-10.01s.01,10.01.01,10.01h-11.01s.01,11,.01,11h-9.01s-.93,9.56-.93,9.56l-10.07.43v10.01s-10-.01-10-.01v10.01s-10-.01-10-.01l-.43,10.07-10.57.93v10.01s-10-.01-10-.01v10.01s-9.99,0-9.99,0v21h10.01s-.01,10.01-.01,10.01h10.01s-.01,10-.01,10l10.07.43.93,10.57h10.01s-.01,10-.01,10h10.01s-.01,10-.01,10l10.07.43.93,10.57h9.01s.93,9.56.93,9.56l10.07.43v10.01s10.56.93,10.56.93l-.25,49.85-.98,1.25-9.34-.05-.93,10.57-10.07.43v10.01s-39.99,0-39.99,0l-.44-10.06-9.62-.36-.93-10.59h-11.01s.01-10,.01-10l-9.07-.43-.93-9.57-9.57-.93-.43-10.07h-10.01s.01-10,.01-10h-10.01s.01-10,.01-10h-10.01s.01-11,.01-11h-11.01s.01-10,.01-10h-10.01s-1.14-9.86-1.14-9.86l-9.86-.14v10.01s-9-.01-9-.01l-1.14,9.87-9.86.13v10.01s-10-.01-10-.01v11.01s-10-.01-10-.01v10.01s-11-.01-11-.01v11.01s-10-.01-10-.01v10.01s-10-.01-10-.01l-.46,10.06-.98.7c-9.1-2.9-10.29,2.32-9.54,10.25h-10.01s0,9.99,0,9.99h-52l-.44-10.06-9.57-.93v-10.01s-10,0-10,0v-41h10.01s-.01-11.01-.01-11.01h10.01s-.01-10-.01-10l10.07-.43.93-9.57h10.01s-.01-11-.01-11h10.01s-.01-10-.01-10l10.07-.43.93-9.57h10.01s-.01-11-.01-11h10.01s-.01-10-.01-10l10.07-.43.93-9.57h10.01s0-21,0-21h-10.01s.01-10.01.01-10.01l-10.07-.43-.93-10.57c-11.16,1.64-10.44,1.15-10-10h-10.01s-1.1-9.89-1.1-9.89l-9.9-.1v-10.01s-10,.01-10,.01v-11.01s-10,.01-10,.01l-.93-9.57-10.07-.43v-10.01s-10,.01-10,.01v-10.01s-9.56-.93-9.56-.93l-.44-30.07c.71-.71,8.65,1.41,10-1.49v-19.5h10.01s0-10,0-10h52Z"/>
</svg>