<?xml version="1.0" encoding="UTF-8"?>
<svg id="Layer_1" xmlns="http://www.w3.org/2000/svg" version="1.1" viewBox="0 0 100 100.72">
  <!-- Generator: Adobe Illustrator 29.7.0, SVG Export Plug-In . SVG Version: 2.1.1 Build 138)  -->
  <path d="M82.7,34.83v9.34h-2.33v4.67h-7v-4.67h-2.33v-2.33h4.67v-7h7v-4.67h-7v2.33h-4.67v-4.67H21.97v4.67h-4.67v9.34h2.33v9.34h4.67v4.68h4.67v4.67h4.67v4.67h28.03v-4.67h4.68v-4.67h4.67v-4.68h2.33v2.33h9.34v-4.67h2.33v-4.67h2.33v-9.34h-4.67ZM31.31,53.51v-4.67h-2.33v-4.67h-2.33v-9.34h2.33v9.34h2.33v4.67h2.33v4.67h2.33v2.35h-2.33v-2.35h-2.33Z"/>
  <path d="M80.36,67.53H12.63v4.67h2.33v2.33h4.67v2.33h4.67v2.33h7v2.33h35.04v-2.33h7v-2.33h4.67v-2.33h4.67v-2.33h2.33v-4.67h-4.67ZM19.64,69.86h2.33v2.33h-2.33v-2.33ZM28.98,76.86v-2.33h-4.67v-2.33h4.67v2.33h7v2.33h-7Z"/>
  <rect x="52.33" y="6.8" width="2.33" height="2.33"/>
  <polygon points="52.33 11.47 52.33 9.14 50 9.14 50 11.47 50 13.81 52.33 13.81 52.33 11.47"/>
  <rect x="47.67" y="13.81" width="2.33" height="2.33"/>
  <rect x="45.33" y="23.14" width="2.33" height="2.33"/>
  <rect x="45.33" y="16.14" width="2.33" height="2.33"/>
  <polygon points="45.33 18.47 43 18.47 43 20.81 43 23.14 45.33 23.14 45.33 20.81 45.33 18.47"/>
  <polygon points="45.33 6.8 45.33 4.47 43 4.47 40.66 4.47 40.66 6.8 43 6.8 45.33 6.8"/>
  <rect x="38.33" y="23.14" width="2.33" height="2.33"/>
  <polygon points="40.66 9.14 40.66 6.8 38.33 6.8 38.33 9.14 38.33 11.47 40.66 11.47 40.66 9.14"/>
  <polygon points="35.98 23.14 38.33 23.14 38.33 20.81 38.33 18.47 35.98 18.47 35.98 20.81 35.98 23.14"/>
  <rect x="35.98" y="11.47" width="2.35" height="2.33"/>
  <polygon points="35.98 13.81 33.65 13.81 33.65 16.14 33.65 18.47 35.98 18.47 35.98 16.14 35.98 13.81"/>
</svg>