<?xml version="1.0" encoding="UTF-8"?>
<svg id="Layer_1" xmlns="http://www.w3.org/2000/svg" version="1.1" viewBox="0 0 100 99.9">
  <!-- Generator: Adobe Illustrator 29.7.0, SVG Export Plug-In . SVG Version: 2.1.1 Build 138)  -->
  <polygon points="70.83 26.71 70.83 24.26 70.83 21.81 68.37 21.81 65.93 21.81 65.93 19.36 65.93 16.91 63.47 16.91 61.02 16.91 61.02 14.46 58.58 14.46 56.12 14.46 53.67 14.46 51.23 14.46 48.77 14.46 46.32 14.46 43.86 14.46 41.41 14.46 38.96 14.46 38.96 16.91 36.51 16.91 34.06 16.91 34.06 19.36 34.06 21.81 31.61 21.81 29.16 21.81 29.16 24.26 29.16 26.71 26.71 26.71 24.26 26.71 24.26 29.16 24.26 31.61 24.26 34.06 24.26 36.51 24.26 38.96 24.26 41.42 24.26 43.88 24.26 46.33 26.71 46.33 29.16 46.33 31.61 46.33 31.61 48.77 31.61 51.23 34.06 51.23 36.51 51.23 38.96 51.23 41.41 51.23 41.41 48.77 41.41 46.33 38.96 46.33 36.51 46.33 36.51 43.88 36.51 41.42 36.51 38.96 36.51 36.51 36.51 34.06 36.51 31.61 36.51 29.16 38.96 29.16 38.96 26.71 41.41 26.71 43.86 26.71 46.32 26.71 48.77 26.71 51.23 26.71 53.67 26.71 56.12 26.71 58.58 26.71 58.58 29.16 61.02 29.16 61.02 31.61 61.02 34.06 61.02 36.51 61.02 38.96 61.02 41.42 61.02 43.88 61.02 46.33 58.58 46.33 58.58 48.77 58.58 51.23 56.12 51.23 53.67 51.23 53.67 53.67 53.67 56.12 51.23 56.12 48.77 56.12 46.32 56.12 46.32 58.58 46.32 61.02 46.32 63.47 46.32 65.93 46.32 68.37 48.77 68.37 51.23 68.37 53.67 68.37 56.12 68.37 56.12 65.93 56.12 63.47 56.12 61.02 56.12 58.58 58.58 58.58 61.02 58.58 63.47 58.58 63.47 56.12 63.47 53.67 65.93 53.67 68.37 53.67 68.37 51.23 68.37 48.77 70.83 48.77 73.28 48.77 73.28 46.33 73.28 43.88 75.74 43.88 75.74 41.42 75.74 38.96 75.74 36.51 75.74 34.06 75.74 31.61 75.74 29.16 75.74 26.71 73.28 26.71 70.83 26.71"/>
  <polygon points="56.12 73.29 53.67 73.29 51.23 73.29 48.77 73.29 46.32 73.29 46.32 75.74 43.86 75.74 43.86 78.19 43.86 80.64 43.86 83.09 46.32 83.09 46.32 85.54 48.77 85.54 51.23 85.54 53.67 85.54 56.12 85.54 56.12 83.09 58.58 83.09 58.58 80.64 58.58 78.19 58.58 75.74 56.12 75.74 56.12 73.29"/>
</svg>